# xmcd
#
# Track frame offsets: 
#        150
#        14761
#        29110
#        41707
#        56728
#        67384
#        85311
#        96872
#        113686
#        126566
#        140507
#        155188
#
# Disc length: 2160 seconds
#
# Revision: 0
# Processed by: cddbd v1.5.1PL0 Copyright (c) Steve Scherf et al.
# Submitted via: ExactAudioCopy v0.95a5
#
DISCID=bf086e0c
DTITLE=Borderline Bluegrass Band - Keeper of the Door
DYEAR=2003
DGENRE=Bluegrass
TTITLE0=Old Kentucky Home (Stephen Foster)
TTITLE1=Losing Again (Jon Weisberger)
TTITLE2=I Can't Find Your Love (Hazel Dickens)
TTITLE3=The Moon Shines Down (James King)
TTITLE4=Wrong Road Again (Allen Reynolds)
TTITLE5=Keeper of the Door (Larry Gillis and John Gillis)
TTITLE6=Love Me Or Leave Me Alone (Bill Bryson)
TTITLE7=I Am Weary (Pete Roberts)
TTITLE8=If That's The Way You Feel (Ralph Stanley and Peggy Stanley)
TTITLE9=It's All Over (Victor Dowdy)
TTITLE10=Move On (Bill Bryson)
TTITLE11=Building On The Rock (Traditional)
EXTD=
EXTT0=
EXTT1=
EXTT2=
EXTT3=
EXTT4=
EXTT5=
EXTT6=
EXTT7=
EXTT8=
EXTT9=
EXTT10=
EXTT11=
PLAYORDER=
